<svg width="28" height="28" viewBox="0 0 28 28" fill="none" xmlns="http://www.w3.org/2000/svg">
<path d="M7.93013 7.29834H20.0704C22.7982 7.29834 24.4963 9.23606 24.4963 11.9776V19.3745C24.4963 22.116 22.7982 24.0538 20.0692 24.0538H7.93013C5.20239 24.0538 3.50537 22.116 3.50537 19.3745V11.9776C3.50537 9.23606 5.21034 7.29834 7.93013 7.29834Z" stroke="#879299" stroke-width="2" stroke-linecap="round" stroke-linejoin="round"/>
<path d="M17.9191 7.28146V6.55068C17.9191 5.1131 16.7601 3.94727 15.3309 3.94727H12.6714C11.2422 3.94727 10.0833 5.1131 10.0833 6.55068V7.28146" stroke="#879299" stroke-width="2" stroke-linecap="round" stroke-linejoin="round"/>
<path d="M16.2979 12.5425H11.7063" stroke="#879299" stroke-width="2" stroke-linecap="round" stroke-linejoin="round"/>
<path d="M24.4995 14.9517C17.5003 17.6236 10.4999 17.6236 3.49951 14.9517" stroke="#879299" stroke-width="2" stroke-linecap="round" stroke-linejoin="round"/>
</svg>
