<svg width="28" height="28" viewBox="0 0 28 28" fill="none" xmlns="http://www.w3.org/2000/svg">
<g id="Icon">
<path id="Vector" fill-rule="evenodd" clip-rule="evenodd" d="M14.7211 17.311C14.5977 17.5433 14.3576 17.691 14.0952 17.6968H14.0777C13.8212 17.6968 13.5831 17.5627 13.4509 17.3411C12.5549 15.8358 11.4043 14.4849 10.0301 13.3246C9.72303 13.0651 9.68415 12.6055 9.94363 12.2984C10.2041 11.9903 10.6637 11.9504 10.9708 12.2109C12.1477 13.2041 13.1739 14.3275 14.035 15.5598C15.3051 13.4286 17.5005 10.4567 20.7969 8.11953C19.1458 6.21283 16.7133 5 13.999 5C9.03692 5 5 9.03692 5 14C5 18.9621 9.03692 23 13.999 23C18.9621 23 22.999 18.9621 22.999 14C22.999 12.2721 22.5014 10.6618 21.654 9.29057C17.827 12.0097 15.5743 15.7065 14.7211 17.311Z" fill="#BF6ADE"/>
</g>
</svg>
