<svg width="28" height="28" viewBox="0 0 28 28" fill="none" xmlns="http://www.w3.org/2000/svg">
<path d="M17.1108 17.3378L13.6387 14.7714V9.9917" stroke="#2C9BDB" stroke-width="2" stroke-linecap="round" stroke-linejoin="round"/>
<path d="M6.00636 7.18823C5.58184 7.69333 5.20728 8.22339 4.88379 8.78752" stroke="#2C9BDB" stroke-width="2" stroke-linecap="round" stroke-linejoin="round"/>
<path d="M5.03792 19.4682C4.66788 18.8621 4.34439 18.2026 4.10376 17.5056" stroke="#2C9BDB" stroke-width="2" stroke-linecap="round" stroke-linejoin="round"/>
<path d="M11.8875 24.2872L11.8988 24.2861C12.6593 24.4496 13.447 24.5177 14.2404 24.4961" stroke="#2C9BDB" stroke-width="2" stroke-linecap="round" stroke-linejoin="round"/>
<path d="M10.4959 4.10547C9.80917 4.34382 9.14742 4.6571 8.53223 5.03962" stroke="#2C9BDB" stroke-width="2" stroke-linecap="round" stroke-linejoin="round"/>
<path d="M19.4666 22.9617C18.8492 23.334 18.1896 23.6574 17.5029 23.8958" stroke="#2C9BDB" stroke-width="2" stroke-linecap="round" stroke-linejoin="round"/>
<path d="M13.7568 3.5042C14.5502 3.4815 15.338 3.55074 16.0984 3.71532C17.1949 3.92985 18.2461 4.33165 19.2017 4.88669C19.7772 5.20791 20.3186 5.58021 20.8124 6.00699C21.65 6.71753 22.3787 7.56201 22.9599 8.52226C23.3423 9.13745 23.6546 9.79919 23.8952 10.4973C24.0802 11.0137 24.2231 11.5483 24.3253 12.1034C24.4264 12.6573 24.4832 13.2089 24.4933 13.7571C24.5183 14.5618 24.4456 15.328 24.2811 16.0885L24.2833 16.0999C24.0689 17.1951 23.6647 18.236 23.1097 19.1917C22.7987 19.7661 22.4161 20.3075 21.9894 20.8024" stroke="#2C9BDB" stroke-width="2" stroke-linecap="round" stroke-linejoin="round"/>
<path d="M8.79429 23.1022C8.2313 22.7901 7.69101 22.4166 7.19727 21.991" stroke="#2C9BDB" stroke-width="2" stroke-linecap="round" stroke-linejoin="round"/>
<path d="M3.7144 11.8892C3.55095 12.6497 3.48171 13.4373 3.50555 14.2421" stroke="#2C9BDB" stroke-width="2" stroke-linecap="round" stroke-linejoin="round"/>
</svg>
