<svg width="28" height="28" viewBox="0 0 28 28" fill="none" xmlns="http://www.w3.org/2000/svg">
<path d="M17.4546 4.525L18.4087 6.60725H21.4865C22.4328 6.60725 23.2 7.37477 23.2 8.32156V9.59113C23.2 10.2385 22.6755 10.7632 22.0285 10.7632H5.97152C5.3245 10.7632 4.79999 10.2385 4.79999 9.59113V8.32156C4.79999 7.37477 5.56714 6.60725 6.51349 6.60725H9.59133L10.5454 4.525C10.8317 3.90013 11.4558 3.49951 12.1429 3.49951H15.8572C16.5442 3.49951 17.1682 3.90013 17.4546 4.525Z" stroke="#2C9BDB" stroke-width="2" stroke-linecap="round" stroke-linejoin="round"/>
<path d="M21.4056 10.8496V20.9829C21.4056 22.9249 19.8515 24.4992 17.9346 24.4992H10.0671C8.15009 24.4992 6.59607 22.9249 6.59607 20.9829V10.8496" stroke="#2C9BDB" stroke-width="2" stroke-linecap="round" stroke-linejoin="round"/>
<path d="M12.0287 14.9512V20.211M15.9706 14.9512V20.211" stroke="#2C9BDB" stroke-width="2" stroke-linecap="round" stroke-linejoin="round"/>
</svg>
