<svg width="24" height="22" viewBox="0 0 24 22" fill="none" xmlns="http://www.w3.org/2000/svg">
<g id="Group 12303">
<path id="Vector" d="M6.93945 8.59113C8.31296 8.59113 10.7148 4.20566 11.7281 2.22797C11.9087 1.87538 11.9991 1.69909 12.138 1.5638C12.2574 1.44752 12.4324 1.34111 12.5906 1.28864C12.7746 1.22759 12.9363 1.22837 13.2597 1.22994C13.5013 1.23112 13.7385 1.24432 13.9147 1.28054C15.4359 1.59323 16.6216 3.44093 15.0874 8.20767C15.0322 8.37896 15.0047 8.4646 15.021 8.52999C15.0361 8.5905 15.0728 8.64097 15.1258 8.67388C15.1831 8.70934 15.2714 8.70934 15.4479 8.70934H16.6789C18.9907 8.70934 20.1467 8.70934 20.9336 9.18219C21.6533 9.61479 22.1818 10.3046 22.412 11.1123C22.6636 11.9953 22.3626 13.1113 21.7606 15.3432L21.1987 17.4268C20.8799 18.6087 20.7204 19.1998 20.3856 19.6411C20.0773 20.0474 19.6652 20.3631 19.1926 20.555C18.6792 20.7633 18.0672 20.7633 16.8429 20.7633H11.8614C11.4629 20.7633 11.2638 20.7633 11.0687 20.7362C10.8882 20.711 10.7106 20.6684 10.5381 20.6091C10.3519 20.5451 10.1742 20.455 9.8191 20.2746L6.93945 18.8127" stroke="#2C9BDB" stroke-width="2" stroke-linecap="round" stroke-linejoin="round"/>
<path id="Vector_2" d="M4.3076 7.17236H4.13264C3.22128 7.17236 2.76562 7.17236 2.4163 7.34691C2.09567 7.50711 1.83573 7.76706 1.67552 8.08768C1.50098 8.43701 1.50098 8.89267 1.50098 9.80407V18.1364C1.50098 19.0478 1.50098 19.5035 1.67552 19.8528C1.83573 20.1734 2.09567 20.4333 2.4163 20.5935C2.76562 20.7681 3.22128 20.7681 4.13264 20.7681H4.3076C5.21896 20.7681 5.67463 20.7681 6.02394 20.5935C6.34457 20.4333 6.60452 20.1734 6.76473 19.8528C6.93926 19.5035 6.93926 19.0478 6.93926 18.1364V9.80407C6.93926 8.89267 6.93926 8.43701 6.76473 8.08768C6.60452 7.76706 6.34457 7.50711 6.02394 7.34691C5.67463 7.17236 5.21896 7.17236 4.3076 7.17236Z" stroke="#2C9BDB" stroke-width="2" stroke-linecap="round" stroke-linejoin="round"/>
</g>
</svg>
