<svg width="24" height="24" viewBox="0 0 24 24" fill="none" xmlns="http://www.w3.org/2000/svg">
<g id="Group 12252">
<path id="Vector" d="M22.5004 7.88171V6.04167C22.5004 3.53302 20.4675 1.5 17.9588 1.5H16.4922" stroke="#2C9BDB" stroke-width="2" stroke-linecap="round" stroke-linejoin="round"/>
<path id="Vector_2" d="M1.50098 7.88171V6.04167C1.50098 3.53302 3.534 1.5 6.04265 1.5H7.5467" stroke="#2C9BDB" stroke-width="2" stroke-linecap="round" stroke-linejoin="round"/>
<path id="Vector_3" d="M1.50098 16.1196V17.9597C1.50098 20.4672 3.534 22.5002 6.04265 22.5002H7.50924" stroke="#2C9BDB" stroke-width="2" stroke-linecap="round" stroke-linejoin="round"/>
<path id="Vector_4" d="M22.5007 16.1201V17.9602C22.5007 20.4677 20.4677 22.5007 17.9591 22.5007H16.4551" stroke="#2C9BDB" stroke-width="2" stroke-linecap="round" stroke-linejoin="round"/>
<path id="Vector_5" fill-rule="evenodd" clip-rule="evenodd" d="M14.2549 16.7128H9.74494C8.38623 16.7128 7.28516 15.6117 7.28516 14.253V9.74309C7.28516 8.38428 8.38623 7.2832 9.74494 7.2832H14.2549C15.6136 7.2832 16.7147 8.38428 16.7147 9.74309V14.253C16.7147 15.6117 15.6136 16.7128 14.2549 16.7128Z" stroke="#2C9BDB" stroke-width="2" stroke-linecap="round" stroke-linejoin="round"/>
</g>
</svg>
