<svg width="160" height="71" viewBox="0 0 160 71" fill="none" xmlns="http://www.w3.org/2000/svg">
<g id="Group">
<path id="Rectangle" d="M145 6C145 2.68629 147.686 0 151 0C154.314 0 157 2.68629 157 6C157 9.31371 154.314 12 151 12C147.686 12 145 9.31371 145 6Z" fill="#AFBEC6"/>
<path id="Rectangle_2" d="M0 21C0 18.2386 2.23858 16 5 16C7.76142 16 10 18.2386 10 21C10 23.7614 7.76142 26 5 26C2.23858 26 0 23.7614 0 21Z" fill="#BBABC5"/>
<path id="Rectangle_3" d="M20 61C20 58.7909 21.7909 57 24 57C26.2091 57 28 58.7909 28 61C28 63.2091 26.2091 65 24 65C21.7909 65 20 63.2091 20 61Z" fill="#FDB970"/>
<path id="Rectangle_4" d="M140 48C140 46.8954 140.895 46 142 46C143.105 46 144 46.8954 144 48C144 49.1046 143.105 50 142 50C140.895 50 140 49.1046 140 48Z" fill="#F5A09B"/>
<path id="Rectangle_5" d="M154 68C154 66.3431 155.343 65 157 65C158.657 65 160 66.3431 160 68C160 69.6569 158.657 71 157 71C155.343 71 154 69.6569 154 68Z" fill="#A6C58A"/>
</g>
</svg>
