<svg width="24" height="20" viewBox="0 0 24 20" fill="none" xmlns="http://www.w3.org/2000/svg">
<g id="Group 12174">
<path id="Vector" d="M5.92669 16.0551C3.97019 14.4368 2.44771 12.3557 1.49921 9.99937C2.46171 7.63258 3.99585 5.54332 5.96518 3.91571C7.66852 2.51779 9.79768 1.74361 12.0003 1.7168C14.2147 1.74594 16.3509 2.52943 18.0589 3.93785" stroke="#2C9BDB" stroke-width="2" stroke-linecap="round" stroke-linejoin="round"/>
<path id="Vector_2" d="M20.9572 1.05176L3.04883 18.9484" stroke="#2C9BDB" stroke-width="2" stroke-linecap="round" stroke-linejoin="round"/>
<path id="Vector_3" d="M9.45822 12.5276C8.78272 11.8595 8.40473 10.949 8.40823 9.99875C8.40473 8.01903 10.0077 6.41122 11.9887 6.40773C12.943 6.40539 13.8577 6.78317 14.532 7.45707" stroke="#2C9BDB" stroke-width="2" stroke-linecap="round" stroke-linejoin="round"/>
<path id="Vector_4" d="M20.459 6.42578C21.278 7.53106 21.964 8.72845 22.5018 9.99463C20.2688 15.1643 16.3231 18.2772 12.0006 18.2772C11.0241 18.2772 10.0546 18.1187 9.1283 17.8109" stroke="#2C9BDB" stroke-width="2" stroke-linecap="round" stroke-linejoin="round"/>
<path id="Vector_5" d="M15.5272 10.6338C15.26 12.0993 14.1132 13.2489 12.6467 13.5182" stroke="#2C9BDB" stroke-width="2" stroke-linecap="round" stroke-linejoin="round"/>
</g>
</svg>
