<svg width="28" height="28" viewBox="0 0 28 28" fill="none" xmlns="http://www.w3.org/2000/svg">
<path fill-rule="evenodd" clip-rule="evenodd" d="M16.8878 8.02891L13.9078 5.05644C12.3937 3.54108 9.93853 3.54108 8.42333 5.05644L5.17249 8.30221C3.65841 9.81645 3.65841 12.2849 5.17249 13.7991L8.1514 16.7817C9.66548 18.2981 12.1218 18.2981 13.6448 16.7817L15.0436 15.3738L13.8015 16.6474L15.4174 18.2634C15.5964 18.4437 15.7128 18.6768 15.7486 18.9277L15.8728 19.8034C15.9456 20.313 16.3406 20.7151 16.8464 20.7957L17.9353 20.9705C18.3079 21.0309 18.6279 21.2673 18.7969 21.6044L19.7045 23.43C19.9149 23.8533 20.358 24.1076 20.828 24.0773L23.9636 23.8735V21.9505C23.9636 20.882 23.5372 19.8617 22.7886 19.1045L17.0434 13.3522C18.3929 11.8279 18.3538 9.49611 16.8878 8.02891Z" stroke="#879299" stroke-width="2" stroke-linecap="round" stroke-linejoin="round"/>
<path d="M11.516 8.4873L8.91193 11.0935" stroke="#879299" stroke-width="2" stroke-linecap="round" stroke-linejoin="round"/>
</svg>
