<svg width="72" height="72" viewBox="0 0 72 72" fill="none" xmlns="http://www.w3.org/2000/svg">
<path d="M0 36C0 16.1178 16.1178 0 36 0C55.8823 0 72 16.1178 72 36C72 55.8823 55.8823 72 36 72C16.1178 72 0 55.8823 0 36Z" fill="#2C9BDB" fill-opacity="0.1"/>
<path d="M35.9639 19.6001C38.2133 19.6001 40.1725 20.2525 41.6964 21.3398C44.1635 23.0071 45.905 23.877 50.9119 23.9494C51.4924 23.9494 52.0003 24.4569 52.0003 25.0368V32.2132C52.0003 33.373 51.8552 34.4604 51.7101 35.5477H35.9639V19.6001Z" fill="url(#paint0_linear_3118_7710)"/>
<path d="M20.289 35.5477C20.0723 34.4604 20 33.3005 20 32.2132V25.0368C20 24.4569 20.4334 23.9494 21.0835 23.9494C26.0677 23.877 27.8014 23.0071 30.2574 21.3398C31.7021 20.2525 33.7246 19.6001 35.9639 19.6001V35.5477H20.289Z" fill="url(#paint1_linear_3118_7710)"/>
<path d="M35.9637 35.5479V52.8003C35.746 52.8003 35.6009 52.7278 35.3832 52.6553C27.111 47.871 21.6687 42.5793 20.29 35.5479H35.9637Z" fill="url(#paint2_linear_3118_7710)"/>
<path d="M35.9639 52.8003V35.5479H51.6375C50.3314 42.5793 44.8166 47.871 36.5444 52.6553C36.3267 52.7278 36.1816 52.8003 35.9639 52.8003Z" fill="url(#paint3_linear_3118_7710)"/>
<defs>
<linearGradient id="paint0_linear_3118_7710" x1="48.7354" y1="37.5364" x2="37.1857" y2="20.3163" gradientUnits="userSpaceOnUse">
<stop stop-color="#0078D4"/>
<stop offset="1" stop-color="#1493DF"/>
</linearGradient>
<linearGradient id="paint1_linear_3118_7710" x1="33.4948" y1="36.9654" x2="24.6632" y2="21.7223" gradientUnits="userSpaceOnUse">
<stop stop-color="#28AFEA"/>
<stop offset="1" stop-color="#3CCBF4"/>
</linearGradient>
<linearGradient id="paint2_linear_3118_7710" x1="37.149" y1="52.2042" x2="27.9122" y2="33.9014" gradientUnits="userSpaceOnUse">
<stop stop-color="#0669BC"/>
<stop offset="1" stop-color="#0078D4"/>
</linearGradient>
<linearGradient id="paint3_linear_3118_7710" x1="46.5363" y1="48.2252" x2="40.209" y2="37.0788" gradientUnits="userSpaceOnUse">
<stop stop-color="#114A8B"/>
<stop offset="1" stop-color="#0C59A4"/>
</linearGradient>
</defs>
</svg>
