<svg width="22" height="24" viewBox="0 0 22 24" fill="none" xmlns="http://www.w3.org/2000/svg">
<g id="Group 12295">
<path id="Vector" fill-rule="evenodd" clip-rule="evenodd" d="M17.1665 1.5C18.8976 1.5 20.3 2.90982 20.3 4.64995C20.3 6.39008 18.8976 7.7999 17.1665 7.7999C15.4356 7.7999 14.0332 6.39008 14.0332 4.64995C14.0332 2.90982 15.4356 1.5 17.1665 1.5Z" stroke="#2C9BDB" stroke-width="2" stroke-linecap="round" stroke-linejoin="round"/>
<path id="Vector_2" fill-rule="evenodd" clip-rule="evenodd" d="M4.63342 8.84961C6.36442 8.84961 7.76684 10.2595 7.76684 11.9995C7.76684 13.7397 6.36442 15.1495 4.63342 15.1495C2.90242 15.1495 1.5 13.7397 1.5 11.9995C1.5 10.2595 2.90242 8.84961 4.63342 8.84961Z" stroke="#2C9BDB" stroke-width="2" stroke-linecap="round" stroke-linejoin="round"/>
<path id="Vector_3" fill-rule="evenodd" clip-rule="evenodd" d="M17.1665 16.2002C18.8976 16.2002 20.3 17.61 20.3 19.3501C20.3 21.0891 18.8976 22.5 17.1665 22.5C15.4356 22.5 14.0332 21.0891 14.0332 19.3501C14.0332 17.61 15.4356 16.2002 17.1665 16.2002Z" stroke="#2C9BDB" stroke-width="2" stroke-linecap="round" stroke-linejoin="round"/>
<path id="Vector_4" d="M7.33606 13.5847L14.4701 17.7643M14.4589 6.23535L7.33496 10.4138" stroke="#2C9BDB" stroke-width="2" stroke-linecap="round" stroke-linejoin="round"/>
</g>
</svg>
