<svg width="24" height="24" viewBox="0 0 24 24" fill="none" xmlns="http://www.w3.org/2000/svg">
<g id="Group 12298">
<path id="Vector" d="M16.5967 1.76068L16.5803 1.79698M8.02636 1.50049L8.03843 1.53244M22.424 8.03041L22.499 8.00206M7.35798 22.1969L7.37441 22.1605M1.49902 15.9392L1.53098 15.927M1.78751 7.38427L1.73138 7.35892M22.2013 16.6056L22.1529 16.5836M15.9163 22.4254L15.9447 22.5005" stroke="#2C9BDB" stroke-width="2" stroke-linecap="round" stroke-linejoin="round"/>
<path id="Vector_2" fill-rule="evenodd" clip-rule="evenodd" d="M12.0001 4.41699C16.1904 4.41699 19.5858 7.81254 19.5858 11.9996C19.5858 16.1881 16.1904 19.5837 12.0001 19.5837C7.80997 19.5837 4.41309 16.1881 4.41309 11.9996C4.41309 7.81254 7.80997 4.41699 12.0001 4.41699Z" stroke="#2C9BDB" stroke-width="2" stroke-linecap="round" stroke-linejoin="round"/>
<path id="Vector_3" d="M8.20605 12.0003C8.20605 9.90672 9.90447 8.20898 11.9996 8.20898" stroke="#2C9BDB" stroke-width="2" stroke-linecap="round" stroke-linejoin="round"/>
</g>
</svg>
