<svg width="24" height="24" viewBox="0 0 24 24" fill="none" xmlns="http://www.w3.org/2000/svg">
<g id="Group 12302">
<path id="Vector" d="M2.69189 17.1702C1.93135 15.7287 1.5 14.0713 1.5 12.3232C1.5 6.5227 6.19946 1.82324 12 1.82324C17.8006 1.82324 22.5 6.5227 22.5 12.3232C22.5 14.0828 22.0687 15.7513 21.2967 17.2043" stroke="#2C9BDB" stroke-width="2" stroke-linecap="round" stroke-linejoin="round"/>
<path id="Vector_2" fill-rule="evenodd" clip-rule="evenodd" d="M15.8097 11.5834C15.8097 13.7072 14.0877 15.4282 11.965 15.4282C9.84112 15.4282 8.11914 13.7072 8.11914 11.5834C8.11914 9.45963 9.84112 7.73877 11.965 7.73877C14.0877 7.73877 15.8097 9.45963 15.8097 11.5834Z" stroke="#2C9BDB" stroke-width="2" stroke-linecap="round" stroke-linejoin="round"/>
<path id="Vector_3" d="M5.99219 22.1436C6.23057 20.2933 7.87652 18.2388 11.963 18.2388C16.0949 18.2388 17.7295 20.3047 17.9565 22.1777" stroke="#2C9BDB" stroke-width="2" stroke-linecap="round" stroke-linejoin="round"/>
</g>
</svg>
